<mxfile host="app.diagrams.net" modified="2023-01-31T18:33:06.331Z" agent="5.0 (Macintosh; Intel Mac OS X 10_15_7) AppleWebKit/537.36 (KHTML, like Gecko) Chrome/109.0.0.0 Safari/537.36" etag="R3HMgN31AiibJJ7Fu_wu" version="16.2.4" type="github">
  <diagram id="aB8keBf6otd3K6-i1taM" name="Page-1">
    <mxGraphModel dx="1261" dy="705" grid="1" gridSize="10" guides="1" tooltips="1" connect="1" arrows="1" fold="1" page="1" pageScale="1" pageWidth="1100" pageHeight="850" math="0" shadow="0">
      <root>
        <mxCell id="0" />
        <mxCell id="1" parent="0" />
        <mxCell id="v6mE2CfAS_sY862ySllS-1" value="app-of-app" style="rounded=1;whiteSpace=wrap;html=1;" vertex="1" parent="1">
          <mxGeometry x="420" y="50" width="120" height="60" as="geometry" />
        </mxCell>
        <mxCell id="v6mE2CfAS_sY862ySllS-3" value="&amp;nbsp; &amp;nbsp; &amp;nbsp; &amp;nbsp;product-set" style="rounded=1;whiteSpace=wrap;html=1;" vertex="1" parent="1">
          <mxGeometry x="420" y="170" width="120" height="60" as="geometry" />
        </mxCell>
        <mxCell id="v6mE2CfAS_sY862ySllS-4" value="pod-limiter" style="rounded=1;whiteSpace=wrap;html=1;" vertex="1" parent="1">
          <mxGeometry x="700" y="170" width="120" height="60" as="geometry" />
        </mxCell>
        <mxCell id="v6mE2CfAS_sY862ySllS-5" value="namespace&lt;br&gt;" style="rounded=1;whiteSpace=wrap;html=1;" vertex="1" parent="1">
          <mxGeometry x="560" y="170" width="120" height="60" as="geometry" />
        </mxCell>
        <mxCell id="v6mE2CfAS_sY862ySllS-6" value="infra" style="rounded=1;whiteSpace=wrap;html=1;" vertex="1" parent="1">
          <mxGeometry x="280" y="170" width="120" height="60" as="geometry" />
        </mxCell>
        <mxCell id="v6mE2CfAS_sY862ySllS-7" value="" style="shape=image;html=1;verticalAlign=top;verticalLabelPosition=bottom;labelBackgroundColor=#ffffff;imageAspect=0;aspect=fixed;image=https://cdn3.iconfinder.com/data/icons/travelling-icon-set/800/helm-128.png" vertex="1" parent="1">
          <mxGeometry x="280" y="180" width="40" height="40" as="geometry" />
        </mxCell>
        <mxCell id="v6mE2CfAS_sY862ySllS-8" value="" style="shape=image;html=1;verticalAlign=top;verticalLabelPosition=bottom;labelBackgroundColor=#ffffff;imageAspect=0;aspect=fixed;image=https://cdn3.iconfinder.com/data/icons/travelling-icon-set/800/helm-128.png" vertex="1" parent="1">
          <mxGeometry x="420" y="180" width="40" height="40" as="geometry" />
        </mxCell>
        <mxCell id="v6mE2CfAS_sY862ySllS-9" value="" style="endArrow=classic;startArrow=classic;html=1;rounded=0;exitX=0.5;exitY=0;exitDx=0;exitDy=0;entryX=0.5;entryY=0;entryDx=0;entryDy=0;" edge="1" parent="1" source="v6mE2CfAS_sY862ySllS-6" target="v6mE2CfAS_sY862ySllS-5">
          <mxGeometry width="50" height="50" relative="1" as="geometry">
            <mxPoint x="460" y="300" as="sourcePoint" />
            <mxPoint x="510" y="250" as="targetPoint" />
            <Array as="points">
              <mxPoint x="470" y="110" />
            </Array>
          </mxGeometry>
        </mxCell>
        <mxCell id="v6mE2CfAS_sY862ySllS-11" value="" style="endArrow=classic;html=1;rounded=0;" edge="1" parent="1">
          <mxGeometry width="50" height="50" relative="1" as="geometry">
            <mxPoint x="470" y="110" as="sourcePoint" />
            <mxPoint x="460" y="170" as="targetPoint" />
          </mxGeometry>
        </mxCell>
        <mxCell id="v6mE2CfAS_sY862ySllS-12" value="" style="endArrow=classic;html=1;rounded=0;entryX=0.567;entryY=0.017;entryDx=0;entryDy=0;entryPerimeter=0;" edge="1" parent="1" target="v6mE2CfAS_sY862ySllS-4">
          <mxGeometry width="50" height="50" relative="1" as="geometry">
            <mxPoint x="470" y="110" as="sourcePoint" />
            <mxPoint x="540" y="170" as="targetPoint" />
          </mxGeometry>
        </mxCell>
        <mxCell id="v6mE2CfAS_sY862ySllS-14" value="" style="endArrow=classic;html=1;rounded=0;exitX=0.5;exitY=1;exitDx=0;exitDy=0;" edge="1" parent="1" source="v6mE2CfAS_sY862ySllS-6" target="v6mE2CfAS_sY862ySllS-15">
          <mxGeometry width="50" height="50" relative="1" as="geometry">
            <mxPoint x="330" y="220" as="sourcePoint" />
            <mxPoint x="327" y="350" as="targetPoint" />
          </mxGeometry>
        </mxCell>
        <mxCell id="v6mE2CfAS_sY862ySllS-18" value="" style="group" vertex="1" connectable="0" parent="1">
          <mxGeometry x="210" y="300" width="170" height="80" as="geometry" />
        </mxCell>
        <mxCell id="v6mE2CfAS_sY862ySllS-15" value="" style="rounded=1;whiteSpace=wrap;html=1;" vertex="1" parent="v6mE2CfAS_sY862ySllS-18">
          <mxGeometry x="-2" width="145.7142857142857" height="60" as="geometry" />
        </mxCell>
        <mxCell id="v6mE2CfAS_sY862ySllS-16" value="" style="rounded=1;whiteSpace=wrap;html=1;" vertex="1" parent="v6mE2CfAS_sY862ySllS-18">
          <mxGeometry x="12.142857142857142" y="10" width="145.7142857142857" height="60" as="geometry" />
        </mxCell>
        <mxCell id="v6mE2CfAS_sY862ySllS-17" value="infrastructure-&lt;br&gt;applications" style="rounded=1;whiteSpace=wrap;html=1;" vertex="1" parent="v6mE2CfAS_sY862ySllS-18">
          <mxGeometry x="20.285714285714285" y="20" width="145.7142857142857" height="60" as="geometry" />
        </mxCell>
        <mxCell id="v6mE2CfAS_sY862ySllS-20" value="" style="endArrow=classic;html=1;rounded=0;exitX=0.383;exitY=1.008;exitDx=0;exitDy=0;exitPerimeter=0;entryX=0.383;entryY=0;entryDx=0;entryDy=0;entryPerimeter=0;" edge="1" parent="1" source="v6mE2CfAS_sY862ySllS-3" target="v6mE2CfAS_sY862ySllS-26">
          <mxGeometry width="50" height="50" relative="1" as="geometry">
            <mxPoint x="460" y="360" as="sourcePoint" />
            <mxPoint x="466" y="320" as="targetPoint" />
          </mxGeometry>
        </mxCell>
        <mxCell id="v6mE2CfAS_sY862ySllS-21" value="" style="group" vertex="1" connectable="0" parent="1">
          <mxGeometry x="400" y="440" width="210" height="90" as="geometry" />
        </mxCell>
        <mxCell id="v6mE2CfAS_sY862ySllS-22" value="" style="rounded=1;whiteSpace=wrap;html=1;" vertex="1" parent="v6mE2CfAS_sY862ySllS-21">
          <mxGeometry width="180" height="60" as="geometry" />
        </mxCell>
        <mxCell id="v6mE2CfAS_sY862ySllS-23" value="" style="rounded=1;whiteSpace=wrap;html=1;" vertex="1" parent="v6mE2CfAS_sY862ySllS-21">
          <mxGeometry x="15" y="10" width="180" height="60" as="geometry" />
        </mxCell>
        <mxCell id="v6mE2CfAS_sY862ySllS-24" value="capitolis-helm-&lt;br&gt;umbrelas" style="rounded=1;whiteSpace=wrap;html=1;" vertex="1" parent="v6mE2CfAS_sY862ySllS-21">
          <mxGeometry x="30" y="20" width="180" height="70" as="geometry" />
        </mxCell>
        <mxCell id="v6mE2CfAS_sY862ySllS-27" value="" style="shape=image;html=1;verticalAlign=top;verticalLabelPosition=bottom;labelBackgroundColor=#ffffff;imageAspect=0;aspect=fixed;image=https://cdn3.iconfinder.com/data/icons/travelling-icon-set/800/helm-128.png" vertex="1" parent="v6mE2CfAS_sY862ySllS-21">
          <mxGeometry x="30" y="35" width="40" height="40" as="geometry" />
        </mxCell>
        <mxCell id="v6mE2CfAS_sY862ySllS-26" value="&amp;nbsp; &amp;nbsp; &amp;nbsp; &amp;nbsp; &amp;nbsp;applicationSet" style="rounded=1;whiteSpace=wrap;html=1;" vertex="1" parent="1">
          <mxGeometry x="400" y="300" width="140" height="60" as="geometry" />
        </mxCell>
        <mxCell id="v6mE2CfAS_sY862ySllS-28" value="" style="endArrow=classic;html=1;rounded=0;entryX=0.317;entryY=-0.017;entryDx=0;entryDy=0;entryPerimeter=0;exitX=0.308;exitY=0.992;exitDx=0;exitDy=0;exitPerimeter=0;" edge="1" parent="1" source="v6mE2CfAS_sY862ySllS-26" target="v6mE2CfAS_sY862ySllS-22">
          <mxGeometry width="50" height="50" relative="1" as="geometry">
            <mxPoint x="460" y="420" as="sourcePoint" />
            <mxPoint x="510" y="370" as="targetPoint" />
          </mxGeometry>
        </mxCell>
        <mxCell id="v6mE2CfAS_sY862ySllS-36" value="" style="group" vertex="1" connectable="0" parent="1">
          <mxGeometry x="90" y="440" width="200" height="80" as="geometry" />
        </mxCell>
        <mxCell id="v6mE2CfAS_sY862ySllS-37" value="" style="rounded=1;whiteSpace=wrap;html=1;" vertex="1" parent="v6mE2CfAS_sY862ySllS-36">
          <mxGeometry width="171.42857142857144" height="60" as="geometry" />
        </mxCell>
        <mxCell id="v6mE2CfAS_sY862ySllS-38" value="" style="rounded=1;whiteSpace=wrap;html=1;" vertex="1" parent="v6mE2CfAS_sY862ySllS-36">
          <mxGeometry x="14.285714285714286" y="10" width="171.42857142857144" height="60" as="geometry" />
        </mxCell>
        <mxCell id="v6mE2CfAS_sY862ySllS-39" value="infastructure-helm&lt;br&gt;charts" style="rounded=1;whiteSpace=wrap;html=1;" vertex="1" parent="v6mE2CfAS_sY862ySllS-36">
          <mxGeometry x="28.571428571428573" y="20" width="171.42857142857144" height="60" as="geometry" />
        </mxCell>
        <mxCell id="v6mE2CfAS_sY862ySllS-45" value="" style="shape=image;html=1;verticalAlign=top;verticalLabelPosition=bottom;labelBackgroundColor=#ffffff;imageAspect=0;aspect=fixed;image=https://cdn3.iconfinder.com/data/icons/travelling-icon-set/800/helm-128.png" vertex="1" parent="v6mE2CfAS_sY862ySllS-36">
          <mxGeometry x="28.569999999999993" y="30" width="40" height="40" as="geometry" />
        </mxCell>
        <mxCell id="v6mE2CfAS_sY862ySllS-52" value="helm-tamplates" style="text;html=1;resizable=0;autosize=1;align=center;verticalAlign=middle;points=[];fillColor=none;strokeColor=none;rounded=0;shadow=0;" vertex="1" parent="1">
          <mxGeometry x="87" y="330" width="100" height="20" as="geometry" />
        </mxCell>
        <mxCell id="v6mE2CfAS_sY862ySllS-54" value="" style="group" vertex="1" connectable="0" parent="1">
          <mxGeometry x="80" y="280" width="540" height="120" as="geometry" />
        </mxCell>
        <mxCell id="v6mE2CfAS_sY862ySllS-47" value="" style="endArrow=none;dashed=1;html=1;dashPattern=1 3;strokeWidth=2;rounded=0;" edge="1" parent="v6mE2CfAS_sY862ySllS-54">
          <mxGeometry width="50" height="50" relative="1" as="geometry">
            <mxPoint as="sourcePoint" />
            <mxPoint x="540" as="targetPoint" />
          </mxGeometry>
        </mxCell>
        <mxCell id="v6mE2CfAS_sY862ySllS-48" value="" style="endArrow=none;dashed=1;html=1;dashPattern=1 3;strokeWidth=2;rounded=0;" edge="1" parent="v6mE2CfAS_sY862ySllS-54">
          <mxGeometry width="50" height="50" relative="1" as="geometry">
            <mxPoint x="540" y="120" as="sourcePoint" />
            <mxPoint x="540" as="targetPoint" />
          </mxGeometry>
        </mxCell>
        <mxCell id="v6mE2CfAS_sY862ySllS-49" value="" style="endArrow=none;dashed=1;html=1;dashPattern=1 3;strokeWidth=2;rounded=0;" edge="1" parent="v6mE2CfAS_sY862ySllS-54">
          <mxGeometry width="50" height="50" relative="1" as="geometry">
            <mxPoint y="120" as="sourcePoint" />
            <mxPoint x="540" y="120" as="targetPoint" />
          </mxGeometry>
        </mxCell>
        <mxCell id="v6mE2CfAS_sY862ySllS-51" value="" style="endArrow=none;dashed=1;html=1;dashPattern=1 3;strokeWidth=2;rounded=0;" edge="1" parent="v6mE2CfAS_sY862ySllS-54">
          <mxGeometry width="50" height="50" relative="1" as="geometry">
            <mxPoint y="120" as="sourcePoint" />
            <mxPoint as="targetPoint" />
          </mxGeometry>
        </mxCell>
        <mxCell id="v6mE2CfAS_sY862ySllS-55" value="" style="group" vertex="1" connectable="0" parent="1">
          <mxGeometry x="170" y="150" width="660" height="214" as="geometry" />
        </mxCell>
        <mxCell id="v6mE2CfAS_sY862ySllS-56" value="" style="endArrow=none;dashed=1;html=1;dashPattern=1 3;strokeWidth=2;rounded=0;" edge="1" parent="v6mE2CfAS_sY862ySllS-55">
          <mxGeometry width="50" height="50" relative="1" as="geometry">
            <mxPoint as="sourcePoint" />
            <mxPoint x="660" as="targetPoint" />
          </mxGeometry>
        </mxCell>
        <mxCell id="v6mE2CfAS_sY862ySllS-57" value="" style="endArrow=none;dashed=1;html=1;dashPattern=1 3;strokeWidth=2;rounded=0;" edge="1" parent="v6mE2CfAS_sY862ySllS-55">
          <mxGeometry width="50" height="50" relative="1" as="geometry">
            <mxPoint x="660" y="117.52577319587628" as="sourcePoint" />
            <mxPoint x="660" as="targetPoint" />
          </mxGeometry>
        </mxCell>
        <mxCell id="v6mE2CfAS_sY862ySllS-58" value="" style="endArrow=none;dashed=1;html=1;dashPattern=1 3;strokeWidth=2;rounded=0;" edge="1" parent="v6mE2CfAS_sY862ySllS-55">
          <mxGeometry width="50" height="50" relative="1" as="geometry">
            <mxPoint y="117.52577319587628" as="sourcePoint" />
            <mxPoint x="660" y="117.52577319587628" as="targetPoint" />
          </mxGeometry>
        </mxCell>
        <mxCell id="v6mE2CfAS_sY862ySllS-59" value="" style="endArrow=none;dashed=1;html=1;dashPattern=1 3;strokeWidth=2;rounded=0;" edge="1" parent="v6mE2CfAS_sY862ySllS-55">
          <mxGeometry width="50" height="50" relative="1" as="geometry">
            <mxPoint y="117.52577319587628" as="sourcePoint" />
            <mxPoint as="targetPoint" />
          </mxGeometry>
        </mxCell>
        <mxCell id="v6mE2CfAS_sY862ySllS-60" value="kustomize" style="text;html=1;resizable=0;autosize=1;align=center;verticalAlign=middle;points=[];fillColor=none;strokeColor=none;rounded=0;shadow=0;" vertex="1" parent="v6mE2CfAS_sY862ySllS-55">
          <mxGeometry x="15" y="39.17525773195876" width="70" height="20" as="geometry" />
        </mxCell>
        <mxCell id="v6mE2CfAS_sY862ySllS-88" value="" style="shape=image;verticalLabelPosition=bottom;labelBackgroundColor=default;verticalAlign=top;aspect=fixed;imageAspect=0;image=data:image/png,iVBORw0KGgoAAAANSUhEUgAAAOAAAADgCAMAAAAt85rTAAABTVBMVEX////vdU/l9fvS7PTtbUzqZE+40ewEBwfucU8AAAD2qoW60u2+1e76/P7d6vbqYUvR7/jg8fnZ7/bsa0/vc0vR5fTqY0/qXkjD2O/d7vjs+PzsbE/W5PTs8/rJ3vHW6fby+v3o8Pnuakf+9vXsdGHY1NLU5OnwfFb86ebyo5frbFf4zcbW3N3vinrug3L629b97+3o6OjExMTjcEzeuq/hsaPrhWbkpZLzmHPxhF7ay8XmnYfzkm3pkHXkiXv2vrT0sqfikYf1uK7meGcqLCxrbGyOj4+5ubk5Ozt6e3vdr6tPUFCcnZ3awsDhm5I+Pz+MRzG8XkAXDw3olXrkoIvfp6DhmZAVGRlxcnLxmInt0Mb0x7n1pYy+l4vj29jZfmOecWOQVEJ3aGPTZkO4WTpYNiwaCQBqMR5TKhyBQi03HhakUzk9IhiLRzLNz9twJkN2AAAWJ0lEQVR4nO2d61ca2ZbAsSMRGsoqrgilAiKCDxTRBDVqjESTmIcmN0knaTs9uTOTmdt5dM///3HqPKqoc84+jyoKTa/F/pCVpXCsX+3neadSYxnLWMYylrGMZSxjGctYxjKWsYxlLGMZy1jGMpaxjGUsY/l7imVZdSLe/6ybfprExLKq1aXpSq1Wc928myfiurVapTK9VK3/nUk9tKXp2Zqbz92WSS7v1hDn3w/Tqlc9rblytLBgyr8TpIXgGL3lPFW5yC6peP/Ps4rNEcibfnQD8ejCmkNGODu7ODc3V/DkJyzof4W5ucVFz37DSvYgf3RGRJcbsNU8MgolEw8UuenAXD3Gm6aQiVWfrvlPivQ2p0ZjMBdDschjrP+AerSqFXegOZ3iIFXOBqadcys/mqlaS5W8//5j0IUUSRndytIPhGj5tplzoximhDF4U9M/CKKHRx9pWDrKOEtt/XbtR9CiNe1S5S3GtUxR5nw13jiitUTSQr62mBgdRXSpod4oYpWEFg8vOe0FiNRS85UbS4zUOnNJa8+XwiwxVPeGok2VxBZ3RHhIfF+s3YAS65XcqPEIIrXT+vXiecGFJIbkfY8X6orXG2wsHFxG5nyszBFXvE5PrFauS31EFkkwuzYzXcJ/z02kbDEUGs+WrgOPmKdUffPz86MgJErMX4OZkugpU988egBLglgIJAbhHC6ZcpVRE5LkV5Opj/x5lrDw0z+I3AqE/iASKU37I06JODvIo0udfqwe/IThEgVRGiMujp4Qh5e8PDn49mNROBVbmNKQcM4dcaiZzmui5wCwYAgXQBopskDKi+nR4FnTOLyonqROPzofjS4C42xuZIQW1p8svBCZpx+NqL4A0YCREiYfTE34aBitF+LxmakRB9MR6FDJV7csEjhRvIjqfjzizRBi/5uVqA1/wiMcjsxYi4sjIFxCfDUYr04/kxCeASIhTDJb4PwH22cwyh43ssRBxIRuchkf12cgX6A+z0ST5NNlfxxLEyOsy/kG0bqeqAIxopIQV211+UNHEKsmy++D9q2fksbTIWLCZPoWFVl9Nmh9PnH1aQlJ1ZZEKEUBFKqvB+ZZH4n6CKE81hRQ4MsNH0qrXjs5IAEO+MzU53BijCglnEsklGIHBBLgfPAJA/VhoM3WYa+3i6R3edhauWUKKSdczA3vhlYFDqB1/wP64InYDnePjg8misVig8hk5uD4lx6mHIYQJYvccHX3Uh4MMMZ8zq2VVu/ooIhlAklmEgnGzOztX26uGDDKHBEHmqEqGuSAt8UA4/NZGvfzdNc72pvw2agQRIKJGD09xiXEXfxhsmEFdMCAT+1+zq3W7vEEC8cRIsbVt71NrRZlhIs4G8bmQxlCzPBBfFF2+xyntb8H4XGESI3HvRUdocwRa8PkCsuFMqDPZ6n5VnZXYTqBEDHuaRElOsTZ0I0XZ3AEFTKgEZ+zcnksxxMJPcSjQ40rSghxxyJeQQNGUD+/q/2vtb+qwgMIJxt7u5uxCGtx0z1SYE4w0Lqez7l1qFafhDBz1IpDiCNpnHSPFChEUMqnKl+cld6BFs8THhAp8VAZTiWBBqX7GMkQ1Wg53kB9PsW4p7OyP2HCBxKu9pSOCBPidF+LrMJpIML4Dqji23yrN0+JkSIz3VVGU5gQ16RR40wdpQje6Cmfoj5zWm8N8WSE+zEIazFSBaTAOvmVYnQJ6c+YDwKcbEyqCUHAuegqRArkaxg/A8oToLN5FOJDJajaXCHCycldlR8mpcJpoJdLG5AHUGfllzDP6v179+4fRAfM7Co0CBPORc32kALr9Ffyv72yH1bY/Z+x3FMhgoAolkYljKpCNFDPKdCfnVZ0kHqrIp8n0Qm9fBgREBVsOXMVooFQvkijClQY6GE4vx8EfD/fW40IONl4qwo0UhWa50JUxMyCfPIM4awchx3w3gDwZ0VhA3vhZGNfFUmhkg2p0LicwVUop0BqoIouxC4TYMKA9xShVAKYiWyktQgVaVWsQqkC5SUMa6BhC40DONk4VnUtIMLFCJ0KQIFUtQoDPWIojAElNqrJFQAg7vmahRnUkXdBBSr6ED22A8iY6P0YgI09Vd8JUuGscZhZEqs08j1FChRKtPshQFXvSQaICppoKpxDozNGNupZaJ61UK0CnR7fRQqp8L4cb0LqhDFU6BoOsKEqhg0x8zoFcikCSTEgVPPJVdjYV6kQSBUozOQNbHRJGKmY1yrwUiyqi14pqqvU1IB7EQMpLkgNUqHMQlWj9HAnafXg4EBRxWgAJxu9iDZaM7JRwEK1CmzpxtDiAR5H7DehwRl9HPXKNK6jRBSo6ubuxudTAE4WI4YZZKN5bRwVLZS8E0URsxKlGx8BsLEbrW+PR590uR4NprHzgcRCFVWo0zIaJpSJAvA4YqfCJNejCTPIQlWrYHpD4KkAJw+UI8GwjerqUTShxCYJ8kYUVRo7UJEkYEYVR4FUiOpRTZ8J9ZTygIUqFqI5m0KWTwpwUpnrARvVOyF2wWgWynWUoooiyGg6TYCNUieE3NBaqlQq01XRBbUWynckEtSguh4FVIjGuN1pRFLn+abJBii0q4VxQa2Fel35YfCUGpxcVXXsAcBCcKQCv/mg6m985vu65E2oxtJW9odSoNIHM1EHEAcYXM02PTgzg+3rEkDVKnquL58ooLpTCDhhbYBhyQDZGKN3wSGDqBKwsb8STYWLAUZeCsjEmHmthd7a3Bsh4C8RAecMAIEYo1zPNFLAo4iAhZwWkO3s6l3wVosCZjILCwszMzPev5mYgOjrWAwBASfMawHzQBBVr6hAeT6zMJMOy4w55ACOaQBDNt6qAUUVulpAdlIJf0q5ZAT1JTLpdCnNSsmYkdAJDSDIGIC1WIDKNT+HzRnx2YgYIWYmF6QNNK7UC6BEwFktIJMlyHiaqjN/6/JB+OWXSqwmFgw0KMVLp+0z9RKv4QE1QdTZfNe0KVLJLntC/hlQzuiUmAm9HRt/u2zbg5+130cbW1vUAgJpUNqVcFoP0+RhvCezm531/snJSX+90/SeMnhENeFCoCz0neZWp9PZaqYRJf2x/UBVjwp9wsVcJEBNlrg8K5fIU7Q7/e5y0Npyt99pB3pQmGlmJtBde2t9Y400sby2gb9P7KDcVBSkggbn8jpA8zToXDaJnuz21cZyipXtjau2b6lSQp/PtpvrG9vM95e762e+dbSfS8cPBQ1qAaE8D2cJL3xiPjv9QMDDj7jRoU8oI8zMlCjBOtRCt9+kBtJ+LgMUnLAQDVBRajutDuFr99cAPCRr/bat8kOiv1J5i9Ne6BURO7fblxJCEdBNCNBZeWgTDwHVR5/wpF2WEy5Qvo7sBXmvaJ0YQflM0rWPDshWauRDYJ5/R6yr2ZU+HZINqsMZwECp+13JX5D3ik5JA/YDOFvEADTToBdgbJyI1XweYdOG3dB3wHXYPAM5pY78PCkNAoCiBp2VB2Wsvw0NXyp1QglBAy2lrzR8qRSxUhs20pEB9kiZcaoyLyLLfVLKcSqkBtrRWYCXcK5QuinZLxPSoJkPbmEF6l+/J2sdG4gzCyTD6C3ASxdnWIVNSIUjAnQuUYICAszO5uaOMOpKAk1pQVRgeV2gWQZaOGnjD79PBBBKE6IGH5ahx2s9efVh6tHjc95ur8pCICUKbPMJYpO2sMP81DNS/GkgkI4mDzotFDjsNKfA86dZLB+esM+X6pKaLWyjOMfb/Bs6f0VbeMa2cNJGDZSBqZgRAfZQ3Ch32Ke78yg7hSWbfcL+ZnmLV2EGzKF3ngYtPGMeb3sLqbD80MBE9cU20JsQ8uBLG4W1E6aFnRf06bzn+3CHffJTXFOGuobEQrkUv/N40EL2nPlVH8e0M9FGkwHkehPO5gNkoU3Wgc4/BI83lX3Mtt4l5UiGsdBSmn1DqfNH0ha6OEwBFakIqO0P1vSALRS3y+z7t54Mnm4q+2qTaX2Z1OUsIG+hbAtPW0wDuFooidWMAKjv8EJDFhwgLtPsPvt4z+SPl1peLzO5nrggV2SzLTxirRy/ISDXC/1BgzGZggjIjcn02mh0iTUwJWDqFMfRGRaQKxNUGkzhN2Q/FEagYgC6IiA/qvbc8x+7zRUhF9mQB73gEsVJWgAs2etcvryYCrXwiksUGPCBHlA/LgqUMvy46DsMyMf4cIjg8gQtZljAUp/7UOtpqIVnXAO4dOrwYTTOwG8OqNV+AgD5JOZZmP982aecAkHANA+YCrXwaJNrwDYE1A/dG4w6gRpEaSxLctijc+5XhoCohSzcgilgQT/5AiVCLoyCPug935NHqM6aenyH/01qIy0C2n2hr+W38EJ8Q9hEhW69mAZv6wH1Q9soikI9Hat18ezXJ+e8fab8IMOlCT7IqFo4haOoOO5rAOiKgGwYdS49gyvZpyKHTJb7NpAHjXqTVEiaeK8FnDUAzIvTS2yUASsZNSBYyWzJR9MEIR3sdyyeKogqAG8DM6BMlKG16Jm5AtaaQC0KeLFUtlGQKqX5WlTeWVICAlGGS/UvbdPhBiIb/NDhAoky5g2QEQR+0ELel1ACAlGG7dQ7z3F/UBxvkInQpcdOWO4Y2wB2wXKHd0HBQgcxhl8n4690cmuwE7I2Snr0bdPnW+N7SzTKGNsAMfHyO/M6RlydvpTPeeIuIVVCa7nYpt/jN2oaR0lfghkZXSAqNGwAB2E7rbVQ5II5N3/bIxEPmalOe1LHO8+AOdAUlyiQT5TPzMJgt8kmicgq7JIRiwf8JBo4d+YuLXkg8nPj68KCUchG8bioV2yZZIrldWhoe8bcC5fXkcvbaWHMSbBQk30FaMmvC9goW8w4z23DkftgWJSbfsmQkXsTKyfTG2WhrwS7oHZniOeEOWjFKJvr6dyEQa4m49LiBBqeezF5RWtkYLt9yekPsFDX5HSgqrDzBdo34Ryi16qc26OPR4YMgdklMjmhnZ7axg2UvDKNBxQUiNf71nWAaNU2uxiIfIXL9St4frBU1hSUax0yCw3MD5LpJXtLTbh2hRsAJpdiWig5BAGyUU6Fm3iG1yNU6bDr8wEzvHQFgpqwe4X7IXZbXGkh8OE6zWD3mbhFmW4fZFXoldzEdjpyN9rYogstwDl6Qlgqn51Ig/FGBzdQKvNltmxFusn+wZRgo/D2M+ewTQibfdhM19bbKr5gkZPdXoetYLnfpnziaJPEQmsGfPikFWjzCz966Fye4b9vl5snIuL2adNfrSRfJ0MJy9BKje2TM9KAnRaHC2Ur7o2OChB3ENbJL4RJmEs6t2nbW/3uWmil01q3f+bjqdZy+QvVvHfU3wg3sN3tb9l0mVH6pcm8Ge7rGp7XIdthJ6469NeqlWy0Uu1ko4tk42R9sBBLsxovvJYr1EC/0/RXgpXb76AFh+LGJdM9yinoKAuJCtFqwzSJk94T2ul28+ys2Wx7Gg3WG+pWG/qEfgOohVADnmovIT5gOXrOZHckEZQK8+zXZSp0bl1uBTDoGe0QnMr9wmYafD5owP+J537wCiCBL9pxJOJxMmAuJIgr7+UrfvV4SBZk30+fXcLL8AAF5qOcDl8VDwRSnEayWwQX7UZYl84vafdbmDySrPcVFYj3ndVNAfEuQnAvPbT4t4e3FNBF86WALtLeAs8XZ4Jvl/z3U5QAAgp0I50IRCpuVoX07QBG6u9wpRsn0L6JaHCD79NtE6gF1EQR3vgi2b0b5QRHuQoBIx1y/6BCivAOUHhva7SDYnFBCqrQEv7e5egAwc1nEgWa5ggqFaFe889V4410yC2uSoEAAT5cpUU86RepkAukvpEKRffoAKHl6MA5JDEUCKqwTn4j9JuG3H6mAjQpQsl4duSjmqvA8ZRgPTNCwFURUHYKSYxDcIHzKclOH16Dw24BVQCKK3+gg3KinYoXCBoh5ToV2A0FHxwZYPFA2PQC8JEDYuvRAfFNS/w5/vP1+nyBBxzmMJJogOBpXPGO+E3RU36hq5Y4Ex12G7YckD8nAOIjESbeSeJV+KoCjvD6AKVH/kVOEb5M87OFIKHyNJJh2IvcsVXQk+BJ+dg3v+DrQsD7wBjLUR2FsKelUPyKPTAHeg5soNGPoA4EDV7wkVTUofxIp+Lqye9qHRb35OeSsYDQoZuF2OfA+ypEfXv4SrAQoeq0jt/WlOduF/c+ymNwMbxFGXwIcidKfD56aRZ8ad2AUHHkUbGXWvtdSlhsHHe3FYBHGr7FIQ0UCb6VCL7V1Cd0VID/YaWWTyWOVpz4fTv16V9ywF+U/keO8R/6XiLshkpCpyc//q74n2hZ1sYxgFicuP/R+92d13JAv78LXy81/JU2RKQ3g/lXRTqXCsD/wuvq1k73ODstFvfwcL118Vn+ZXqumuSWgqTuBrOkd9dRHTqH8i598fsT7CLL3f5BcDMR+s8e3dS8899yQHpwnOR6MHJ/XRK3u+E1NPDtkZhQeXDc/7yii6+X1z6+RXdLNTzKvd8/+hMR5/97V65B3FuS6C/JOxbx/ZGS+z8Lmg7h53+HNrFsdz+enHz82B3MRe08/kMDeA18JNCAZTdWoqM6Uebulw/C6taQXGT/Kf3qRPHQkd1GRC52S+wWUHxmV15KqDwy52v2VUva8J1H2e9KQBkfvpM7wXtc8Q1F0ku+d1Q93u9T2RebkmZbr7LfXisAP6n4bid6m7KSUAn4+ls2+wLW4Z0X2ewXhQtOSAAJXzLXYxoRVlVd+rt/ZKeyT8/Fp7Eu0E4LlQuu7lwfHyJEQwOzYE5S9ni/v0EbBR7fYR7I2jn31DflWaj8q8UDEBDz5RLn83UIRhrl+Zuf/8wiwg+/nrd2li0Mt3PngmyRUFmoBBDHz1HwUUIwW6gP//tK9zxOvXr87MnFxcWTX188ytJNLt+VXamq+Kdw/kvePkOEUNWmPMS4+PlbliL6G1t8vOyfCgVOFO+LfLOj0x8hxHd+C5W3+pTm4l+hTVfZbHgTnUqBXof+uvn8UzpdPph+VA9L3P0zBBWS7Bfl14pvuT9D7hZO/CZ6lhDXpXyo6WnGzl6/gQiVSR4BHrF/haSH5OoziZD1+awj/qYbHPwnxPdGUaVhwH3RPIWDUUdBiA2FMdPfdPe53f0q8k39pYowPGChlrsmPj/UhM30k3Z816tnshzfVw2f16Ef/IVFbDf5EYYXRpaINwTR9JPBLP1fjB9m/62xTwT4kY0uo3e/gVRrRInUE3dMliF8//LGT3/Zb3+o4wsB/I1RX+5azNOXegVnpBrxxB2jWfrP3//4hvjefPn6WmeeiI8CztXIAdKJ9o70Yi2RpITDqRmg54mfX3///vq1fJiJAZxAgIVZsquqJt/LMjJEcqoCstPqKGbpi6uffOsc9sryuEI88bY7W1DdrDQEoI93rd4XFmuahrdRzNIXD/6PmEjtZtRHpIqDze2HjREA7hH7EI6tv16xMOL7RrwFhnLJZBoIMF+5KesMIXrx9KUHmCii11rjX17HqHqD1hmS+X0MmBgibqvx4AfQni9XFDARRL+pZoR99iOWbjOTSYpw0NJk/6a5AunPZMKSDF9mJsJRBKOVta2ZiUQImUYyC9zBZnHk/wHeLSGdU1bXLwAAAABJRU5ErkJggg==;" vertex="1" parent="v6mE2CfAS_sY862ySllS-55">
          <mxGeometry x="240" y="160" width="34" height="34" as="geometry" />
        </mxCell>
        <mxCell id="v6mE2CfAS_sY862ySllS-89" value="" style="shape=image;verticalLabelPosition=bottom;labelBackgroundColor=default;verticalAlign=top;aspect=fixed;imageAspect=0;image=data:image/png,iVBORw0KGgoAAAANSUhEUgAAAOAAAADgCAMAAAAt85rTAAABTVBMVEX////vdU/l9fvS7PTtbUzqZE+40ewEBwfucU8AAAD2qoW60u2+1e76/P7d6vbqYUvR7/jg8fnZ7/bsa0/vc0vR5fTqY0/qXkjD2O/d7vjs+PzsbE/W5PTs8/rJ3vHW6fby+v3o8Pnuakf+9vXsdGHY1NLU5OnwfFb86ebyo5frbFf4zcbW3N3vinrug3L629b97+3o6OjExMTjcEzeuq/hsaPrhWbkpZLzmHPxhF7ay8XmnYfzkm3pkHXkiXv2vrT0sqfikYf1uK7meGcqLCxrbGyOj4+5ubk5Ozt6e3vdr6tPUFCcnZ3awsDhm5I+Pz+MRzG8XkAXDw3olXrkoIvfp6DhmZAVGRlxcnLxmInt0Mb0x7n1pYy+l4vj29jZfmOecWOQVEJ3aGPTZkO4WTpYNiwaCQBqMR5TKhyBQi03HhakUzk9IhiLRzLNz9twJkN2AAAWJ0lEQVR4nO2d61ca2ZbAsSMRGsoqrgilAiKCDxTRBDVqjESTmIcmN0knaTs9uTOTmdt5dM///3HqPKqoc84+jyoKTa/F/pCVpXCsX+3neadSYxnLWMYylrGMZSxjGctYxjKWsYxlLGMZy1jGMpaxjGUsY/l7imVZdSLe/6ybfprExLKq1aXpSq1Wc928myfiurVapTK9VK3/nUk9tKXp2Zqbz92WSS7v1hDn3w/Tqlc9rblytLBgyr8TpIXgGL3lPFW5yC6peP/Ps4rNEcibfnQD8ejCmkNGODu7ODc3V/DkJyzof4W5ucVFz37DSvYgf3RGRJcbsNU8MgolEw8UuenAXD3Gm6aQiVWfrvlPivQ2p0ZjMBdDschjrP+AerSqFXegOZ3iIFXOBqadcys/mqlaS5W8//5j0IUUSRndytIPhGj5tplzoximhDF4U9M/CKKHRx9pWDrKOEtt/XbtR9CiNe1S5S3GtUxR5nw13jiitUTSQr62mBgdRXSpod4oYpWEFg8vOe0FiNRS85UbS4zUOnNJa8+XwiwxVPeGok2VxBZ3RHhIfF+s3YAS65XcqPEIIrXT+vXiecGFJIbkfY8X6orXG2wsHFxG5nyszBFXvE5PrFauS31EFkkwuzYzXcJ/z02kbDEUGs+WrgOPmKdUffPz86MgJErMX4OZkugpU988egBLglgIJAbhHC6ZcpVRE5LkV5Opj/x5lrDw0z+I3AqE/iASKU37I06JODvIo0udfqwe/IThEgVRGiMujp4Qh5e8PDn49mNROBVbmNKQcM4dcaiZzmui5wCwYAgXQBopskDKi+nR4FnTOLyonqROPzofjS4C42xuZIQW1p8svBCZpx+NqL4A0YCREiYfTE34aBitF+LxmakRB9MR6FDJV7csEjhRvIjqfjzizRBi/5uVqA1/wiMcjsxYi4sjIFxCfDUYr04/kxCeASIhTDJb4PwH22cwyh43ssRBxIRuchkf12cgX6A+z0ST5NNlfxxLEyOsy/kG0bqeqAIxopIQV211+UNHEKsmy++D9q2fksbTIWLCZPoWFVl9Nmh9PnH1aQlJ1ZZEKEUBFKqvB+ZZH4n6CKE81hRQ4MsNH0qrXjs5IAEO+MzU53BijCglnEsklGIHBBLgfPAJA/VhoM3WYa+3i6R3edhauWUKKSdczA3vhlYFDqB1/wP64InYDnePjg8misVig8hk5uD4lx6mHIYQJYvccHX3Uh4MMMZ8zq2VVu/ooIhlAklmEgnGzOztX26uGDDKHBEHmqEqGuSAt8UA4/NZGvfzdNc72pvw2agQRIKJGD09xiXEXfxhsmEFdMCAT+1+zq3W7vEEC8cRIsbVt71NrRZlhIs4G8bmQxlCzPBBfFF2+xyntb8H4XGESI3HvRUdocwRa8PkCsuFMqDPZ6n5VnZXYTqBEDHuaRElOsTZ0I0XZ3AEFTKgEZ+zcnksxxMJPcSjQ40rSghxxyJeQQNGUD+/q/2vtb+qwgMIJxt7u5uxCGtx0z1SYE4w0Lqez7l1qFafhDBz1IpDiCNpnHSPFChEUMqnKl+cld6BFs8THhAp8VAZTiWBBqX7GMkQ1Wg53kB9PsW4p7OyP2HCBxKu9pSOCBPidF+LrMJpIML4Dqji23yrN0+JkSIz3VVGU5gQ16RR40wdpQje6Cmfoj5zWm8N8WSE+zEIazFSBaTAOvmVYnQJ6c+YDwKcbEyqCUHAuegqRArkaxg/A8oToLN5FOJDJajaXCHCycldlR8mpcJpoJdLG5AHUGfllzDP6v179+4fRAfM7Co0CBPORc32kALr9Ffyv72yH1bY/Z+x3FMhgoAolkYljKpCNFDPKdCfnVZ0kHqrIp8n0Qm9fBgREBVsOXMVooFQvkijClQY6GE4vx8EfD/fW40IONl4qwo0UhWa50JUxMyCfPIM4awchx3w3gDwZ0VhA3vhZGNfFUmhkg2p0LicwVUop0BqoIouxC4TYMKA9xShVAKYiWyktQgVaVWsQqkC5SUMa6BhC40DONk4VnUtIMLFCJ0KQIFUtQoDPWIojAElNqrJFQAg7vmahRnUkXdBBSr6ED22A8iY6P0YgI09Vd8JUuGscZhZEqs08j1FChRKtPshQFXvSQaICppoKpxDozNGNupZaJ61UK0CnR7fRQqp8L4cb0LqhDFU6BoOsKEqhg0x8zoFcikCSTEgVPPJVdjYV6kQSBUozOQNbHRJGKmY1yrwUiyqi14pqqvU1IB7EQMpLkgNUqHMQlWj9HAnafXg4EBRxWgAJxu9iDZaM7JRwEK1CmzpxtDiAR5H7DehwRl9HPXKNK6jRBSo6ubuxudTAE4WI4YZZKN5bRwVLZS8E0URsxKlGx8BsLEbrW+PR590uR4NprHzgcRCFVWo0zIaJpSJAvA4YqfCJNejCTPIQlWrYHpD4KkAJw+UI8GwjerqUTShxCYJ8kYUVRo7UJEkYEYVR4FUiOpRTZ8J9ZTygIUqFqI5m0KWTwpwUpnrARvVOyF2wWgWynWUoooiyGg6TYCNUieE3NBaqlQq01XRBbUWynckEtSguh4FVIjGuN1pRFLn+abJBii0q4VxQa2Fel35YfCUGpxcVXXsAcBCcKQCv/mg6m985vu65E2oxtJW9odSoNIHM1EHEAcYXM02PTgzg+3rEkDVKnquL58ooLpTCDhhbYBhyQDZGKN3wSGDqBKwsb8STYWLAUZeCsjEmHmthd7a3Bsh4C8RAecMAIEYo1zPNFLAo4iAhZwWkO3s6l3wVosCZjILCwszMzPev5mYgOjrWAwBASfMawHzQBBVr6hAeT6zMJMOy4w55ACOaQBDNt6qAUUVulpAdlIJf0q5ZAT1JTLpdCnNSsmYkdAJDSDIGIC1WIDKNT+HzRnx2YgYIWYmF6QNNK7UC6BEwFktIJMlyHiaqjN/6/JB+OWXSqwmFgw0KMVLp+0z9RKv4QE1QdTZfNe0KVLJLntC/hlQzuiUmAm9HRt/u2zbg5+130cbW1vUAgJpUNqVcFoP0+RhvCezm531/snJSX+90/SeMnhENeFCoCz0neZWp9PZaqYRJf2x/UBVjwp9wsVcJEBNlrg8K5fIU7Q7/e5y0Npyt99pB3pQmGlmJtBde2t9Y400sby2gb9P7KDcVBSkggbn8jpA8zToXDaJnuz21cZyipXtjau2b6lSQp/PtpvrG9vM95e762e+dbSfS8cPBQ1qAaE8D2cJL3xiPjv9QMDDj7jRoU8oI8zMlCjBOtRCt9+kBtJ+LgMUnLAQDVBRajutDuFr99cAPCRr/bat8kOiv1J5i9Ne6BURO7fblxJCEdBNCNBZeWgTDwHVR5/wpF2WEy5Qvo7sBXmvaJ0YQflM0rWPDshWauRDYJ5/R6yr2ZU+HZINqsMZwECp+13JX5D3ik5JA/YDOFvEADTToBdgbJyI1XweYdOG3dB3wHXYPAM5pY78PCkNAoCiBp2VB2Wsvw0NXyp1QglBAy2lrzR8qRSxUhs20pEB9kiZcaoyLyLLfVLKcSqkBtrRWYCXcK5QuinZLxPSoJkPbmEF6l+/J2sdG4gzCyTD6C3ASxdnWIVNSIUjAnQuUYICAszO5uaOMOpKAk1pQVRgeV2gWQZaOGnjD79PBBBKE6IGH5ahx2s9efVh6tHjc95ur8pCICUKbPMJYpO2sMP81DNS/GkgkI4mDzotFDjsNKfA86dZLB+esM+X6pKaLWyjOMfb/Bs6f0VbeMa2cNJGDZSBqZgRAfZQ3Ch32Ke78yg7hSWbfcL+ZnmLV2EGzKF3ngYtPGMeb3sLqbD80MBE9cU20JsQ8uBLG4W1E6aFnRf06bzn+3CHffJTXFOGuobEQrkUv/N40EL2nPlVH8e0M9FGkwHkehPO5gNkoU3Wgc4/BI83lX3Mtt4l5UiGsdBSmn1DqfNH0ha6OEwBFakIqO0P1vSALRS3y+z7t54Mnm4q+2qTaX2Z1OUsIG+hbAtPW0wDuFooidWMAKjv8EJDFhwgLtPsPvt4z+SPl1peLzO5nrggV2SzLTxirRy/ISDXC/1BgzGZggjIjcn02mh0iTUwJWDqFMfRGRaQKxNUGkzhN2Q/FEagYgC6IiA/qvbc8x+7zRUhF9mQB73gEsVJWgAs2etcvryYCrXwiksUGPCBHlA/LgqUMvy46DsMyMf4cIjg8gQtZljAUp/7UOtpqIVnXAO4dOrwYTTOwG8OqNV+AgD5JOZZmP982aecAkHANA+YCrXwaJNrwDYE1A/dG4w6gRpEaSxLctijc+5XhoCohSzcgilgQT/5AiVCLoyCPug935NHqM6aenyH/01qIy0C2n2hr+W38EJ8Q9hEhW69mAZv6wH1Q9soikI9Hat18ezXJ+e8fab8IMOlCT7IqFo4haOoOO5rAOiKgGwYdS49gyvZpyKHTJb7NpAHjXqTVEiaeK8FnDUAzIvTS2yUASsZNSBYyWzJR9MEIR3sdyyeKogqAG8DM6BMlKG16Jm5AtaaQC0KeLFUtlGQKqX5WlTeWVICAlGGS/UvbdPhBiIb/NDhAoky5g2QEQR+0ELel1ACAlGG7dQ7z3F/UBxvkInQpcdOWO4Y2wB2wXKHd0HBQgcxhl8n4690cmuwE7I2Snr0bdPnW+N7SzTKGNsAMfHyO/M6RlydvpTPeeIuIVVCa7nYpt/jN2oaR0lfghkZXSAqNGwAB2E7rbVQ5II5N3/bIxEPmalOe1LHO8+AOdAUlyiQT5TPzMJgt8kmicgq7JIRiwf8JBo4d+YuLXkg8nPj68KCUchG8bioV2yZZIrldWhoe8bcC5fXkcvbaWHMSbBQk30FaMmvC9goW8w4z23DkftgWJSbfsmQkXsTKyfTG2WhrwS7oHZniOeEOWjFKJvr6dyEQa4m49LiBBqeezF5RWtkYLt9yekPsFDX5HSgqrDzBdo34Ryi16qc26OPR4YMgdklMjmhnZ7axg2UvDKNBxQUiNf71nWAaNU2uxiIfIXL9St4frBU1hSUax0yCw3MD5LpJXtLTbh2hRsAJpdiWig5BAGyUU6Fm3iG1yNU6bDr8wEzvHQFgpqwe4X7IXZbXGkh8OE6zWD3mbhFmW4fZFXoldzEdjpyN9rYogstwDl6Qlgqn51Ig/FGBzdQKvNltmxFusn+wZRgo/D2M+ewTQibfdhM19bbKr5gkZPdXoetYLnfpnziaJPEQmsGfPikFWjzCz966Fye4b9vl5snIuL2adNfrSRfJ0MJy9BKje2TM9KAnRaHC2Ur7o2OChB3ENbJL4RJmEs6t2nbW/3uWmil01q3f+bjqdZy+QvVvHfU3wg3sN3tb9l0mVH6pcm8Ge7rGp7XIdthJ6469NeqlWy0Uu1ko4tk42R9sBBLsxovvJYr1EC/0/RXgpXb76AFh+LGJdM9yinoKAuJCtFqwzSJk94T2ul28+ys2Wx7Gg3WG+pWG/qEfgOohVADnmovIT5gOXrOZHckEZQK8+zXZSp0bl1uBTDoGe0QnMr9wmYafD5owP+J537wCiCBL9pxJOJxMmAuJIgr7+UrfvV4SBZk30+fXcLL8AAF5qOcDl8VDwRSnEayWwQX7UZYl84vafdbmDySrPcVFYj3ndVNAfEuQnAvPbT4t4e3FNBF86WALtLeAs8XZ4Jvl/z3U5QAAgp0I50IRCpuVoX07QBG6u9wpRsn0L6JaHCD79NtE6gF1EQR3vgi2b0b5QRHuQoBIx1y/6BCivAOUHhva7SDYnFBCqrQEv7e5egAwc1nEgWa5ggqFaFe889V4410yC2uSoEAAT5cpUU86RepkAukvpEKRffoAKHl6MA5JDEUCKqwTn4j9JuG3H6mAjQpQsl4duSjmqvA8ZRgPTNCwFURUHYKSYxDcIHzKclOH16Dw24BVQCKK3+gg3KinYoXCBoh5ToV2A0FHxwZYPFA2PQC8JEDYuvRAfFNS/w5/vP1+nyBBxzmMJJogOBpXPGO+E3RU36hq5Y4Ex12G7YckD8nAOIjESbeSeJV+KoCjvD6AKVH/kVOEb5M87OFIKHyNJJh2IvcsVXQk+BJ+dg3v+DrQsD7wBjLUR2FsKelUPyKPTAHeg5soNGPoA4EDV7wkVTUofxIp+Lqye9qHRb35OeSsYDQoZuF2OfA+ypEfXv4SrAQoeq0jt/WlOduF/c+ymNwMbxFGXwIcidKfD56aRZ8ad2AUHHkUbGXWvtdSlhsHHe3FYBHGr7FIQ0UCb6VCL7V1Cd0VID/YaWWTyWOVpz4fTv16V9ywF+U/keO8R/6XiLshkpCpyc//q74n2hZ1sYxgFicuP/R+92d13JAv78LXy81/JU2RKQ3g/lXRTqXCsD/wuvq1k73ODstFvfwcL118Vn+ZXqumuSWgqTuBrOkd9dRHTqH8i598fsT7CLL3f5BcDMR+s8e3dS8899yQHpwnOR6MHJ/XRK3u+E1NPDtkZhQeXDc/7yii6+X1z6+RXdLNTzKvd8/+hMR5/97V65B3FuS6C/JOxbx/ZGS+z8Lmg7h53+HNrFsdz+enHz82B3MRe08/kMDeA18JNCAZTdWoqM6Uebulw/C6taQXGT/Kf3qRPHQkd1GRC52S+wWUHxmV15KqDwy52v2VUva8J1H2e9KQBkfvpM7wXtc8Q1F0ku+d1Q93u9T2RebkmZbr7LfXisAP6n4bid6m7KSUAn4+ls2+wLW4Z0X2ewXhQtOSAAJXzLXYxoRVlVd+rt/ZKeyT8/Fp7Eu0E4LlQuu7lwfHyJEQwOzYE5S9ni/v0EbBR7fYR7I2jn31DflWaj8q8UDEBDz5RLn83UIRhrl+Zuf/8wiwg+/nrd2li0Mt3PngmyRUFmoBBDHz1HwUUIwW6gP//tK9zxOvXr87MnFxcWTX188ytJNLt+VXamq+Kdw/kvePkOEUNWmPMS4+PlbliL6G1t8vOyfCgVOFO+LfLOj0x8hxHd+C5W3+pTm4l+hTVfZbHgTnUqBXof+uvn8UzpdPph+VA9L3P0zBBWS7Bfl14pvuT9D7hZO/CZ6lhDXpXyo6WnGzl6/gQiVSR4BHrF/haSH5OoziZD1+awj/qYbHPwnxPdGUaVhwH3RPIWDUUdBiA2FMdPfdPe53f0q8k39pYowPGChlrsmPj/UhM30k3Z816tnshzfVw2f16Ef/IVFbDf5EYYXRpaINwTR9JPBLP1fjB9m/62xTwT4kY0uo3e/gVRrRInUE3dMliF8//LGT3/Zb3+o4wsB/I1RX+5azNOXegVnpBrxxB2jWfrP3//4hvjefPn6WmeeiI8CztXIAdKJ9o70Yi2RpITDqRmg54mfX3///vq1fJiJAZxAgIVZsquqJt/LMjJEcqoCstPqKGbpi6uffOsc9sryuEI88bY7W1DdrDQEoI93rd4XFmuahrdRzNIXD/6PmEjtZtRHpIqDze2HjREA7hH7EI6tv16xMOL7RrwFhnLJZBoIMF+5KesMIXrx9KUHmCii11rjX17HqHqD1hmS+X0MmBgibqvx4AfQni9XFDARRL+pZoR99iOWbjOTSYpw0NJk/6a5AunPZMKSDF9mJsJRBKOVta2ZiUQImUYyC9zBZnHk/wHeLSGdU1bXLwAAAABJRU5ErkJggg==;" vertex="1" parent="v6mE2CfAS_sY862ySllS-55">
          <mxGeometry x="63" y="180" width="34" height="34" as="geometry" />
        </mxCell>
        <mxCell id="v6mE2CfAS_sY862ySllS-65" value="env-values.yaml" style="shape=note;whiteSpace=wrap;html=1;backgroundOutline=1;darkOpacity=0.05;shadow=0;" vertex="1" parent="1">
          <mxGeometry x="920" y="50" width="80" height="100" as="geometry" />
        </mxCell>
        <mxCell id="v6mE2CfAS_sY862ySllS-68" value="" style="curved=1;endArrow=classic;html=1;rounded=0;exitX=0.5;exitY=1;exitDx=0;exitDy=0;exitPerimeter=0;" edge="1" parent="1" source="v6mE2CfAS_sY862ySllS-65">
          <mxGeometry width="50" height="50" relative="1" as="geometry">
            <mxPoint x="590" y="300" as="sourcePoint" />
            <mxPoint x="610" y="500" as="targetPoint" />
            <Array as="points">
              <mxPoint x="900" y="260" />
              <mxPoint x="760" y="440" />
            </Array>
          </mxGeometry>
        </mxCell>
        <mxCell id="v6mE2CfAS_sY862ySllS-69" value="" style="curved=1;endArrow=classic;html=1;rounded=0;exitX=0.5;exitY=1;exitDx=0;exitDy=0;exitPerimeter=0;" edge="1" parent="1" source="v6mE2CfAS_sY862ySllS-65">
          <mxGeometry width="50" height="50" relative="1" as="geometry">
            <mxPoint x="970" y="160" as="sourcePoint" />
            <mxPoint x="490" y="230" as="targetPoint" />
            <Array as="points">
              <mxPoint x="910" y="270" />
              <mxPoint x="770" y="450" />
            </Array>
          </mxGeometry>
        </mxCell>
        <mxCell id="v6mE2CfAS_sY862ySllS-70" value="" style="curved=1;endArrow=classic;html=1;rounded=0;" edge="1" parent="1">
          <mxGeometry width="50" height="50" relative="1" as="geometry">
            <mxPoint x="960" y="150" as="sourcePoint" />
            <mxPoint x="340" y="230" as="targetPoint" />
            <Array as="points">
              <mxPoint x="920" y="280" />
              <mxPoint x="780" y="460" />
            </Array>
          </mxGeometry>
        </mxCell>
        <mxCell id="v6mE2CfAS_sY862ySllS-71" style="edgeStyle=orthogonalEdgeStyle;rounded=0;orthogonalLoop=1;jettySize=auto;html=1;exitX=0.5;exitY=1;exitDx=0;exitDy=0;" edge="1" parent="1" source="v6mE2CfAS_sY862ySllS-24">
          <mxGeometry relative="1" as="geometry">
            <mxPoint x="360" y="570" as="targetPoint" />
          </mxGeometry>
        </mxCell>
        <mxCell id="v6mE2CfAS_sY862ySllS-73" style="edgeStyle=orthogonalEdgeStyle;rounded=0;orthogonalLoop=1;jettySize=auto;html=1;" edge="1" parent="1">
          <mxGeometry relative="1" as="geometry">
            <mxPoint x="450" y="580" as="targetPoint" />
            <mxPoint x="450" y="530" as="sourcePoint" />
          </mxGeometry>
        </mxCell>
        <mxCell id="v6mE2CfAS_sY862ySllS-74" style="edgeStyle=orthogonalEdgeStyle;rounded=0;orthogonalLoop=1;jettySize=auto;html=1;" edge="1" parent="1">
          <mxGeometry relative="1" as="geometry">
            <mxPoint x="530" y="590" as="targetPoint" />
            <mxPoint x="530" y="530" as="sourcePoint" />
            <Array as="points">
              <mxPoint x="530" y="560" />
              <mxPoint x="530" y="560" />
            </Array>
          </mxGeometry>
        </mxCell>
        <mxCell id="v6mE2CfAS_sY862ySllS-76" value="" style="shape=image;html=1;verticalAlign=top;verticalLabelPosition=bottom;labelBackgroundColor=#ffffff;imageAspect=0;aspect=fixed;image=https://cdn4.iconfinder.com/data/icons/socialcones/508/Github-128.png;shadow=0;" vertex="1" parent="1">
          <mxGeometry x="320" y="570" width="68" height="68" as="geometry" />
        </mxCell>
        <mxCell id="v6mE2CfAS_sY862ySllS-77" value="" style="shape=image;html=1;verticalAlign=top;verticalLabelPosition=bottom;labelBackgroundColor=#ffffff;imageAspect=0;aspect=fixed;image=https://cdn4.iconfinder.com/data/icons/socialcones/508/Github-128.png;shadow=0;" vertex="1" parent="1">
          <mxGeometry x="420" y="580" width="68" height="68" as="geometry" />
        </mxCell>
        <mxCell id="v6mE2CfAS_sY862ySllS-78" value="" style="shape=image;html=1;verticalAlign=top;verticalLabelPosition=bottom;labelBackgroundColor=#ffffff;imageAspect=0;aspect=fixed;image=https://cdn4.iconfinder.com/data/icons/socialcones/508/Github-128.png;shadow=0;" vertex="1" parent="1">
          <mxGeometry x="500" y="590" width="68" height="68" as="geometry" />
        </mxCell>
        <mxCell id="v6mE2CfAS_sY862ySllS-79" value="" style="group" vertex="1" connectable="0" parent="1">
          <mxGeometry x="160" y="554" width="540" height="120" as="geometry" />
        </mxCell>
        <mxCell id="v6mE2CfAS_sY862ySllS-80" value="" style="endArrow=none;dashed=1;html=1;dashPattern=1 3;strokeWidth=2;rounded=0;" edge="1" parent="v6mE2CfAS_sY862ySllS-79">
          <mxGeometry width="50" height="50" relative="1" as="geometry">
            <mxPoint as="sourcePoint" />
            <mxPoint x="540" as="targetPoint" />
          </mxGeometry>
        </mxCell>
        <mxCell id="v6mE2CfAS_sY862ySllS-81" value="" style="endArrow=none;dashed=1;html=1;dashPattern=1 3;strokeWidth=2;rounded=0;" edge="1" parent="v6mE2CfAS_sY862ySllS-79">
          <mxGeometry width="50" height="50" relative="1" as="geometry">
            <mxPoint x="540" y="120" as="sourcePoint" />
            <mxPoint x="540" as="targetPoint" />
          </mxGeometry>
        </mxCell>
        <mxCell id="v6mE2CfAS_sY862ySllS-82" value="" style="endArrow=none;dashed=1;html=1;dashPattern=1 3;strokeWidth=2;rounded=0;" edge="1" parent="v6mE2CfAS_sY862ySllS-79">
          <mxGeometry width="50" height="50" relative="1" as="geometry">
            <mxPoint y="120" as="sourcePoint" />
            <mxPoint x="540" y="120" as="targetPoint" />
          </mxGeometry>
        </mxCell>
        <mxCell id="v6mE2CfAS_sY862ySllS-83" value="" style="endArrow=none;dashed=1;html=1;dashPattern=1 3;strokeWidth=2;rounded=0;" edge="1" parent="v6mE2CfAS_sY862ySllS-79">
          <mxGeometry width="50" height="50" relative="1" as="geometry">
            <mxPoint y="120" as="sourcePoint" />
            <mxPoint as="targetPoint" />
          </mxGeometry>
        </mxCell>
        <mxCell id="v6mE2CfAS_sY862ySllS-84" value="helm-repositories" style="text;html=1;resizable=0;autosize=1;align=center;verticalAlign=middle;points=[];fillColor=none;strokeColor=none;rounded=0;shadow=0;" vertex="1" parent="v6mE2CfAS_sY862ySllS-79">
          <mxGeometry x="15" y="50" width="110" height="20" as="geometry" />
        </mxCell>
        <mxCell id="v6mE2CfAS_sY862ySllS-85" value="" style="swimlane;startSize=0;shadow=0;" vertex="1" parent="1">
          <mxGeometry x="50" y="30" width="980" height="510" as="geometry" />
        </mxCell>
        <mxCell id="v6mE2CfAS_sY862ySllS-95" value="" style="shape=image;html=1;verticalAlign=top;verticalLabelPosition=bottom;labelBackgroundColor=#ffffff;imageAspect=0;aspect=fixed;image=https://cdn4.iconfinder.com/data/icons/socialcones/508/Github-128.png;shadow=0;" vertex="1" parent="v6mE2CfAS_sY862ySllS-85">
          <mxGeometry x="30" y="30" width="38" height="38" as="geometry" />
        </mxCell>
        <mxCell id="v6mE2CfAS_sY862ySllS-96" value="auto3-branch" style="text;html=1;resizable=0;autosize=1;align=center;verticalAlign=middle;points=[];fillColor=none;strokeColor=none;rounded=0;shadow=0;" vertex="1" parent="v6mE2CfAS_sY862ySllS-85">
          <mxGeometry x="80.71000000000001" y="39" width="90" height="20" as="geometry" />
        </mxCell>
        <mxCell id="v6mE2CfAS_sY862ySllS-94" style="edgeStyle=orthogonalEdgeStyle;rounded=0;orthogonalLoop=1;jettySize=auto;html=1;" edge="1" parent="1" source="v6mE2CfAS_sY862ySllS-89" target="v6mE2CfAS_sY862ySllS-37">
          <mxGeometry relative="1" as="geometry" />
        </mxCell>
      </root>
    </mxGraphModel>
  </diagram>
</mxfile>
